<?xml version="1.0" encoding="UTF-8" standalone="no"?>
<!DOCTYPE svg PUBLIC "-//W3C//DTD SVG 1.1//EN"
 "http://www.w3.org/Graphics/SVG/1.1/DTD/svg11.dtd">
<!-- Generated by graphviz version 2.38.0 (20140413.2041)
 -->
<!-- Title: g Pages: 1 -->
<svg width="669pt" height="495pt"
 viewBox="0.00 0.00 668.50 495.00" xmlns="http://www.w3.org/2000/svg" xmlns:xlink="http://www.w3.org/1999/xlink">
<g id="graph0" class="graph" transform="scale(1 1) rotate(0) translate(4 491)">
<title>g</title>
<polygon fill="white" stroke="none" points="-4,4 -4,-491 664.5,-491 664.5,4 -4,4"/>
<text text-anchor="middle" x="330.25" y="-7" font-family="Verdana" font-size="10.00">2015 Rugby World Cup</text>
<!-- ENG -->
<g id="node1" class="node"><title>ENG</title>
<polygon fill="#eeeeee" stroke="blue" points="205.5,-379 150.5,-379 150.5,-343 205.5,-343 205.5,-379"/>
<text text-anchor="middle" x="178" y="-358.8" font-family="Verdana" font-size="9.00" fill="blue">England</text>
</g>
<!-- G_EAD -->
<g id="node21" class="node"><title>G_EAD</title>
<polygon fill="none" stroke="grey" points="167.5,-325 112.5,-325 112.5,-289 167.5,-289 167.5,-325"/>
<text text-anchor="middle" x="140" y="-309.6" font-family="Verdana" font-size="8.00" fill="grey">Match 01</text>
<text text-anchor="middle" x="140" y="-300.6" font-family="Verdana" font-size="8.00" fill="grey">35&#45;11</text>
</g>
<!-- ENG&#45;&gt;G_EAD -->
<g id="edge1" class="edge"><title>ENG&#45;&gt;G_EAD</title>
<path fill="none" stroke="grey" d="M165.557,-342.973C163.35,-339.952 161.007,-336.747 158.671,-333.55"/>
<polygon fill="grey" stroke="grey" points="161.327,-331.252 152.601,-325.243 155.675,-335.382 161.327,-331.252"/>
</g>
<!-- FIJ -->
<g id="node2" class="node"><title>FIJ</title>
<polygon fill="#eeeeee" stroke="blue" points="121,-271 67,-271 67,-235 121,-235 121,-271"/>
<text text-anchor="middle" x="94" y="-250.8" font-family="Verdana" font-size="9.00" fill="blue">Fiji</text>
</g>
<!-- TON -->
<g id="node3" class="node"><title>TON</title>
<polygon fill="#eeeeee" stroke="blue" points="282,-163 228,-163 228,-127 282,-127 282,-163"/>
<text text-anchor="middle" x="255" y="-142.8" font-family="Verdana" font-size="9.00" fill="blue">Tonga</text>
</g>
<!-- GEO -->
<g id="node4" class="node"><title>GEO</title>
<polygon fill="#eeeeee" stroke="blue" points="282,-271 228,-271 228,-235 282,-235 282,-271"/>
<text text-anchor="middle" x="255" y="-250.8" font-family="Verdana" font-size="9.00" fill="blue">Georgia</text>
</g>
<!-- G_EIG -->
<g id="node22" class="node"><title>G_EIG</title>
<polygon fill="none" stroke="grey" points="282.5,-217 227.5,-217 227.5,-181 282.5,-181 282.5,-217"/>
<text text-anchor="middle" x="255" y="-201.6" font-family="Verdana" font-size="8.00" fill="grey">Match 02</text>
<text text-anchor="middle" x="255" y="-192.6" font-family="Verdana" font-size="8.00" fill="grey">17&#45;10</text>
</g>
<!-- GEO&#45;&gt;G_EIG -->
<g id="edge3" class="edge"><title>GEO&#45;&gt;G_EIG</title>
<path fill="none" stroke="grey" d="M255,-234.973C255,-232.574 255,-230.059 255,-227.524"/>
<polygon fill="grey" stroke="grey" points="258.5,-227.243 255,-217.243 251.5,-227.243 258.5,-227.243"/>
</g>
<!-- IRE -->
<g id="node5" class="node"><title>IRE</title>
<polygon fill="#eeeeee" stroke="blue" points="430,-379 376,-379 376,-343 430,-343 430,-379"/>
<text text-anchor="middle" x="403" y="-358.8" font-family="Verdana" font-size="9.00" fill="blue">Ireland</text>
</g>
<!-- G_E3H -->
<g id="node23" class="node"><title>G_E3H</title>
<polygon fill="none" stroke="grey" points="430.5,-325 375.5,-325 375.5,-289 430.5,-289 430.5,-325"/>
<text text-anchor="middle" x="403" y="-309.6" font-family="Verdana" font-size="8.00" fill="grey">Match 03</text>
<text text-anchor="middle" x="403" y="-300.6" font-family="Verdana" font-size="8.00" fill="grey">50&#45;7</text>
</g>
<!-- IRE&#45;&gt;G_E3H -->
<g id="edge5" class="edge"><title>IRE&#45;&gt;G_E3H</title>
<path fill="none" stroke="grey" d="M403,-342.973C403,-340.574 403,-338.059 403,-335.524"/>
<polygon fill="grey" stroke="grey" points="406.5,-335.243 403,-325.243 399.5,-335.243 406.5,-335.243"/>
</g>
<!-- CAN -->
<g id="node6" class="node"><title>CAN</title>
<polygon fill="#eeeeee" stroke="blue" points="466,-271 412,-271 412,-235 466,-235 466,-271"/>
<text text-anchor="middle" x="439" y="-250.8" font-family="Verdana" font-size="9.00" fill="blue">Canada</text>
</g>
<!-- SA -->
<g id="node7" class="node"><title>SA</title>
<polygon fill="#eeeeee" stroke="blue" points="660.5,-271 587.5,-271 587.5,-235 660.5,-235 660.5,-271"/>
<text text-anchor="middle" x="624" y="-250.8" font-family="Verdana" font-size="9.00" fill="blue">South Africa</text>
</g>
<!-- G_EYF -->
<g id="node35" class="node"><title>G_EYF</title>
<polygon fill="none" stroke="grey" points="651.5,-217 596.5,-217 596.5,-181 651.5,-181 651.5,-217"/>
<text text-anchor="middle" x="624" y="-201.6" font-family="Verdana" font-size="8.00" fill="grey">Match 15</text>
<text text-anchor="middle" x="624" y="-192.6" font-family="Verdana" font-size="8.00" fill="grey">46&#45;6</text>
</g>
<!-- SA&#45;&gt;G_EYF -->
<g id="edge29" class="edge"><title>SA&#45;&gt;G_EYF</title>
<path fill="none" stroke="grey" d="M624,-234.973C624,-232.574 624,-230.059 624,-227.524"/>
<polygon fill="grey" stroke="grey" points="627.5,-227.243 624,-217.243 620.5,-227.243 627.5,-227.243"/>
</g>
<!-- JAP -->
<g id="node8" class="node"><title>JAP</title>
<polygon fill="#eeeeee" stroke="blue" points="651,-379 597,-379 597,-343 651,-343 651,-379"/>
<text text-anchor="middle" x="624" y="-358.8" font-family="Verdana" font-size="9.00" fill="blue">Japan</text>
</g>
<!-- G_EUE -->
<g id="node24" class="node"><title>G_EUE</title>
<polygon fill="none" stroke="grey" points="651.5,-325 596.5,-325 596.5,-289 651.5,-289 651.5,-325"/>
<text text-anchor="middle" x="624" y="-309.6" font-family="Verdana" font-size="8.00" fill="grey">Match 04</text>
<text text-anchor="middle" x="624" y="-300.6" font-family="Verdana" font-size="8.00" fill="grey">34&#45;32</text>
</g>
<!-- JAP&#45;&gt;G_EUE -->
<g id="edge7" class="edge"><title>JAP&#45;&gt;G_EUE</title>
<path fill="none" stroke="grey" d="M624,-342.973C624,-340.574 624,-338.059 624,-335.524"/>
<polygon fill="grey" stroke="grey" points="627.5,-335.243 624,-325.243 620.5,-335.243 627.5,-335.243"/>
</g>
<!-- FRA -->
<g id="node9" class="node"><title>FRA</title>
<polygon fill="#eeeeee" stroke="blue" points="540,-487 486,-487 486,-451 540,-451 540,-487"/>
<text text-anchor="middle" x="513" y="-466.8" font-family="Verdana" font-size="9.00" fill="blue">France</text>
</g>
<!-- G_EJAAC -->
<g id="node25" class="node"><title>G_EJAAC</title>
<polygon fill="none" stroke="grey" points="503.5,-433 448.5,-433 448.5,-397 503.5,-397 503.5,-433"/>
<text text-anchor="middle" x="476" y="-417.6" font-family="Verdana" font-size="8.00" fill="grey">Match 05</text>
<text text-anchor="middle" x="476" y="-408.6" font-family="Verdana" font-size="8.00" fill="grey">32&#45;10</text>
</g>
<!-- FRA&#45;&gt;G_EJAAC -->
<g id="edge9" class="edge"><title>FRA&#45;&gt;G_EJAAC</title>
<path fill="none" stroke="grey" d="M500.885,-450.973C498.735,-447.952 496.454,-444.747 494.18,-441.55"/>
<polygon fill="grey" stroke="grey" points="496.918,-439.362 488.269,-433.243 491.215,-443.42 496.918,-439.362"/>
</g>
<!-- G_EVAAC -->
<g id="node31" class="node"><title>G_EVAAC</title>
<polygon fill="none" stroke="grey" points="577.5,-433 522.5,-433 522.5,-397 577.5,-397 577.5,-433"/>
<text text-anchor="middle" x="550" y="-417.6" font-family="Verdana" font-size="8.00" fill="grey">Match 11</text>
<text text-anchor="middle" x="550" y="-408.6" font-family="Verdana" font-size="8.00" fill="grey">38&#45;11</text>
</g>
<!-- FRA&#45;&gt;G_EVAAC -->
<g id="edge21" class="edge"><title>FRA&#45;&gt;G_EVAAC</title>
<path fill="none" stroke="grey" d="M525.115,-450.973C527.265,-447.952 529.546,-444.747 531.82,-441.55"/>
<polygon fill="grey" stroke="grey" points="534.785,-443.42 537.731,-433.243 529.082,-439.362 534.785,-443.42"/>
</g>
<!-- ITA -->
<g id="node10" class="node"><title>ITA</title>
<polygon fill="#eeeeee" stroke="blue" points="503,-379 449,-379 449,-343 503,-343 503,-379"/>
<text text-anchor="middle" x="476" y="-358.8" font-family="Verdana" font-size="9.00" fill="blue">Italy</text>
</g>
<!-- G_EBBAC -->
<g id="node34" class="node"><title>G_EBBAC</title>
<polygon fill="none" stroke="grey" points="503.5,-325 448.5,-325 448.5,-289 503.5,-289 503.5,-325"/>
<text text-anchor="middle" x="476" y="-309.6" font-family="Verdana" font-size="8.00" fill="grey">Match 14</text>
<text text-anchor="middle" x="476" y="-300.6" font-family="Verdana" font-size="8.00" fill="grey">23&#45;18</text>
</g>
<!-- ITA&#45;&gt;G_EBBAC -->
<g id="edge27" class="edge"><title>ITA&#45;&gt;G_EBBAC</title>
<path fill="none" stroke="grey" d="M476,-342.973C476,-340.574 476,-338.059 476,-335.524"/>
<polygon fill="grey" stroke="grey" points="479.5,-335.243 476,-325.243 472.5,-335.243 479.5,-335.243"/>
</g>
<!-- SAM -->
<g id="node11" class="node"><title>SAM</title>
<polygon fill="#eeeeee" stroke="blue" points="651,-163 597,-163 597,-127 651,-127 651,-163"/>
<text text-anchor="middle" x="624" y="-142.8" font-family="Verdana" font-size="9.00" fill="blue">Samoa</text>
</g>
<!-- G_EAF -->
<g id="node26" class="node"><title>G_EAF</title>
<polygon fill="none" stroke="grey" points="651.5,-109 596.5,-109 596.5,-73 651.5,-73 651.5,-109"/>
<text text-anchor="middle" x="624" y="-93.6" font-family="Verdana" font-size="8.00" fill="grey">Match 06</text>
<text text-anchor="middle" x="624" y="-84.6" font-family="Verdana" font-size="8.00" fill="grey">25&#45;16</text>
</g>
<!-- SAM&#45;&gt;G_EAF -->
<g id="edge11" class="edge"><title>SAM&#45;&gt;G_EAF</title>
<path fill="none" stroke="grey" d="M624,-126.973C624,-124.574 624,-122.059 624,-119.524"/>
<polygon fill="grey" stroke="grey" points="627.5,-119.243 624,-109.243 620.5,-119.243 627.5,-119.243"/>
</g>
<!-- USA -->
<g id="node12" class="node"><title>USA</title>
<polygon fill="#eeeeee" stroke="blue" points="651,-55 597,-55 597,-19 651,-19 651,-55"/>
<text text-anchor="middle" x="624" y="-34.8" font-family="Verdana" font-size="9.00" fill="blue">USA</text>
</g>
<!-- WAL -->
<g id="node13" class="node"><title>WAL</title>
<polygon fill="#eeeeee" stroke="blue" points="164,-487 110,-487 110,-451 164,-451 164,-487"/>
<text text-anchor="middle" x="137" y="-466.8" font-family="Verdana" font-size="9.00" fill="blue">Wales</text>
</g>
<!-- G_EMD -->
<g id="node27" class="node"><title>G_EMD</title>
<polygon fill="none" stroke="grey" points="131.5,-433 76.5,-433 76.5,-397 131.5,-397 131.5,-433"/>
<text text-anchor="middle" x="104" y="-417.6" font-family="Verdana" font-size="8.00" fill="grey">Match 07</text>
<text text-anchor="middle" x="104" y="-408.6" font-family="Verdana" font-size="8.00" fill="grey">54&#45;9</text>
</g>
<!-- WAL&#45;&gt;G_EMD -->
<g id="edge13" class="edge"><title>WAL&#45;&gt;G_EMD</title>
<path fill="none" stroke="grey" d="M126.195,-450.973C124.334,-448.041 122.363,-444.935 120.394,-441.832"/>
<polygon fill="grey" stroke="grey" points="123.256,-439.811 114.943,-433.243 117.346,-443.562 123.256,-439.811"/>
</g>
<!-- G_EEE -->
<g id="node36" class="node"><title>G_EEE</title>
<polygon fill="none" stroke="grey" points="205.5,-433 150.5,-433 150.5,-397 205.5,-397 205.5,-433"/>
<text text-anchor="middle" x="178" y="-417.6" font-family="Verdana" font-size="8.00" fill="grey">Match 16</text>
<text text-anchor="middle" x="178" y="-408.6" font-family="Verdana" font-size="8.00" fill="grey">28&#45;25</text>
</g>
<!-- WAL&#45;&gt;G_EEE -->
<g id="edge31" class="edge"><title>WAL&#45;&gt;G_EEE</title>
<path fill="none" stroke="grey" d="M150.425,-450.973C152.877,-447.863 155.483,-444.558 158.077,-441.268"/>
<polygon fill="grey" stroke="grey" points="160.961,-443.263 164.405,-433.243 155.465,-438.929 160.961,-443.263"/>
</g>
<!-- URU -->
<g id="node14" class="node"><title>URU</title>
<polygon fill="#eeeeee" stroke="blue" points="132,-379 76,-379 76,-343 132,-343 132,-379"/>
<text text-anchor="middle" x="104" y="-358.8" font-family="Verdana" font-size="9.00" fill="blue">Uruguay</text>
</g>
<!-- NZ -->
<g id="node15" class="node"><title>NZ</title>
<polygon fill="#eeeeee" stroke="black" points="332.5,-487 253.5,-487 253.5,-451 332.5,-451 332.5,-487"/>
<text text-anchor="middle" x="293" y="-466.8" font-family="Verdana" font-size="9.00">New Zealand</text>
</g>
<!-- G_EUG -->
<g id="node28" class="node"><title>G_EUG</title>
<polygon fill="none" stroke="grey" points="283.5,-433 228.5,-433 228.5,-397 283.5,-397 283.5,-433"/>
<text text-anchor="middle" x="256" y="-417.6" font-family="Verdana" font-size="8.00" fill="grey">Match 08</text>
<text text-anchor="middle" x="256" y="-408.6" font-family="Verdana" font-size="8.00" fill="grey">26&#45;16</text>
</g>
<!-- NZ&#45;&gt;G_EUG -->
<g id="edge15" class="edge"><title>NZ&#45;&gt;G_EUG</title>
<path fill="none" stroke="grey" d="M280.885,-450.973C278.735,-447.952 276.454,-444.747 274.18,-441.55"/>
<polygon fill="grey" stroke="grey" points="276.918,-439.362 268.269,-433.243 271.215,-443.42 276.918,-439.362"/>
</g>
<!-- G_EAH -->
<g id="node32" class="node"><title>G_EAH</title>
<polygon fill="none" stroke="grey" points="357.5,-433 302.5,-433 302.5,-397 357.5,-397 357.5,-433"/>
<text text-anchor="middle" x="330" y="-417.6" font-family="Verdana" font-size="8.00" fill="grey">Match 12</text>
<text text-anchor="middle" x="330" y="-408.6" font-family="Verdana" font-size="8.00" fill="grey">58&#45;14</text>
</g>
<!-- NZ&#45;&gt;G_EAH -->
<g id="edge23" class="edge"><title>NZ&#45;&gt;G_EAH</title>
<path fill="none" stroke="grey" d="M305.115,-450.973C307.265,-447.952 309.546,-444.747 311.82,-441.55"/>
<polygon fill="grey" stroke="grey" points="314.785,-443.42 317.731,-433.243 309.082,-439.362 314.785,-443.42"/>
</g>
<!-- ARG -->
<g id="node16" class="node"><title>ARG</title>
<polygon fill="#eeeeee" stroke="blue" points="286,-379 224,-379 224,-343 286,-343 286,-379"/>
<text text-anchor="middle" x="255" y="-358.8" font-family="Verdana" font-size="9.00" fill="blue">Argentina</text>
</g>
<!-- G_EMH -->
<g id="node33" class="node"><title>G_EMH</title>
<polygon fill="none" stroke="grey" points="282.5,-325 227.5,-325 227.5,-289 282.5,-289 282.5,-325"/>
<text text-anchor="middle" x="255" y="-309.6" font-family="Verdana" font-size="8.00" fill="grey">Match 13</text>
<text text-anchor="middle" x="255" y="-300.6" font-family="Verdana" font-size="8.00" fill="grey">54&#45;9</text>
</g>
<!-- ARG&#45;&gt;G_EMH -->
<g id="edge25" class="edge"><title>ARG&#45;&gt;G_EMH</title>
<path fill="none" stroke="grey" d="M255,-342.973C255,-340.574 255,-338.059 255,-335.524"/>
<polygon fill="grey" stroke="grey" points="258.5,-335.243 255,-325.243 251.5,-335.243 258.5,-335.243"/>
</g>
<!-- SCO -->
<g id="node17" class="node"><title>SCO</title>
<polygon fill="#eeeeee" stroke="blue" points="652.5,-487 595.5,-487 595.5,-451 652.5,-451 652.5,-487"/>
<text text-anchor="middle" x="624" y="-466.8" font-family="Verdana" font-size="9.00" fill="blue">Scotland</text>
</g>
<!-- G_EMF -->
<g id="node29" class="node"><title>G_EMF</title>
<polygon fill="none" stroke="grey" points="651.5,-433 596.5,-433 596.5,-397 651.5,-397 651.5,-433"/>
<text text-anchor="middle" x="624" y="-417.6" font-family="Verdana" font-size="8.00" fill="grey">Match 09</text>
<text text-anchor="middle" x="624" y="-408.6" font-family="Verdana" font-size="8.00" fill="grey">45&#45;10</text>
</g>
<!-- SCO&#45;&gt;G_EMF -->
<g id="edge17" class="edge"><title>SCO&#45;&gt;G_EMF</title>
<path fill="none" stroke="grey" d="M624,-450.973C624,-448.574 624,-446.059 624,-443.524"/>
<polygon fill="grey" stroke="grey" points="627.5,-443.243 624,-433.243 620.5,-443.243 627.5,-443.243"/>
</g>
<!-- AUS -->
<g id="node18" class="node"><title>AUS</title>
<polygon fill="gold" stroke="darkgreen" points="58,-379 0,-379 0,-343 58,-343 58,-379"/>
<text text-anchor="middle" x="29" y="-358.8" font-family="Verdana" font-size="9.00" fill="darkgreen">Australia</text>
</g>
<!-- G_EYD -->
<g id="node30" class="node"><title>G_EYD</title>
<polygon fill="none" stroke="grey" points="75.5,-325 20.5,-325 20.5,-289 75.5,-289 75.5,-325"/>
<text text-anchor="middle" x="48" y="-309.6" font-family="Verdana" font-size="8.00" fill="grey">Match 10</text>
<text text-anchor="middle" x="48" y="-300.6" font-family="Verdana" font-size="8.00" fill="grey">28&#45;13</text>
</g>
<!-- AUS&#45;&gt;G_EYD -->
<g id="edge19" class="edge"><title>AUS&#45;&gt;G_EYD</title>
<path fill="none" stroke="grey" d="M35.2213,-342.973C36.1953,-340.307 37.2218,-337.498 38.2521,-334.678"/>
<polygon fill="grey" stroke="grey" points="41.5551,-335.837 41.6997,-325.243 34.9802,-333.434 41.5551,-335.837"/>
</g>
<!-- ROM -->
<g id="node19" class="node"><title>ROM</title>
<polygon fill="#eeeeee" stroke="blue" points="578.5,-379 521.5,-379 521.5,-343 578.5,-343 578.5,-379"/>
<text text-anchor="middle" x="550" y="-358.8" font-family="Verdana" font-size="9.00" fill="blue">Romania</text>
</g>
<!-- NAM -->
<g id="node20" class="node"><title>NAM</title>
<polygon fill="#eeeeee" stroke="blue" points="358,-379 304,-379 304,-343 358,-343 358,-379"/>
<text text-anchor="middle" x="331" y="-358.8" font-family="Verdana" font-size="9.00" fill="blue">Namibia</text>
</g>
<!-- G_EAD&#45;&gt;FIJ -->
<g id="edge2" class="edge"><title>G_EAD&#45;&gt;FIJ</title>
<path fill="none" stroke="grey" d="M124.938,-288.973C122.108,-285.774 119.095,-282.369 116.103,-278.986"/>
<polygon fill="grey" stroke="grey" points="118.501,-276.414 109.253,-271.243 113.258,-281.052 118.501,-276.414"/>
</g>
<!-- G_EIG&#45;&gt;TON -->
<g id="edge4" class="edge"><title>G_EIG&#45;&gt;TON</title>
<path fill="none" stroke="grey" d="M255,-180.973C255,-178.574 255,-176.059 255,-173.524"/>
<polygon fill="grey" stroke="grey" points="258.5,-173.243 255,-163.243 251.5,-173.243 258.5,-173.243"/>
</g>
<!-- G_E3H&#45;&gt;CAN -->
<g id="edge6" class="edge"><title>G_E3H&#45;&gt;CAN</title>
<path fill="none" stroke="grey" d="M414.788,-288.973C416.879,-285.952 419.099,-282.747 421.311,-279.55"/>
<polygon fill="grey" stroke="grey" points="424.248,-281.457 427.063,-271.243 418.493,-277.473 424.248,-281.457"/>
</g>
<!-- G_EUE&#45;&gt;SA -->
<g id="edge8" class="edge"><title>G_EUE&#45;&gt;SA</title>
<path fill="none" stroke="grey" d="M624,-288.973C624,-286.574 624,-284.059 624,-281.524"/>
<polygon fill="grey" stroke="grey" points="627.5,-281.243 624,-271.243 620.5,-281.243 627.5,-281.243"/>
</g>
<!-- G_EJAAC&#45;&gt;ITA -->
<g id="edge10" class="edge"><title>G_EJAAC&#45;&gt;ITA</title>
<path fill="none" stroke="grey" d="M476,-396.973C476,-394.574 476,-392.059 476,-389.524"/>
<polygon fill="grey" stroke="grey" points="479.5,-389.243 476,-379.243 472.5,-389.243 479.5,-389.243"/>
</g>
<!-- G_EAF&#45;&gt;USA -->
<g id="edge12" class="edge"><title>G_EAF&#45;&gt;USA</title>
<path fill="none" stroke="grey" d="M624,-72.9733C624,-70.574 624,-68.0586 624,-65.5239"/>
<polygon fill="grey" stroke="grey" points="627.5,-65.243 624,-55.243 620.5,-65.2431 627.5,-65.243"/>
</g>
<!-- G_EMD&#45;&gt;URU -->
<g id="edge14" class="edge"><title>G_EMD&#45;&gt;URU</title>
<path fill="none" stroke="grey" d="M104,-396.973C104,-394.574 104,-392.059 104,-389.524"/>
<polygon fill="grey" stroke="grey" points="107.5,-389.243 104,-379.243 100.5,-389.243 107.5,-389.243"/>
</g>
<!-- G_EUG&#45;&gt;ARG -->
<g id="edge16" class="edge"><title>G_EUG&#45;&gt;ARG</title>
<path fill="none" stroke="grey" d="M255.673,-396.973C255.625,-394.485 255.574,-391.872 255.524,-389.242"/>
<polygon fill="grey" stroke="grey" points="259.023,-389.174 255.332,-379.243 252.025,-389.308 259.023,-389.174"/>
</g>
<!-- G_EMF&#45;&gt;JAP -->
<g id="edge18" class="edge"><title>G_EMF&#45;&gt;JAP</title>
<path fill="none" stroke="grey" d="M624,-396.973C624,-394.574 624,-392.059 624,-389.524"/>
<polygon fill="grey" stroke="grey" points="627.5,-389.243 624,-379.243 620.5,-389.243 627.5,-389.243"/>
</g>
<!-- G_EYD&#45;&gt;FIJ -->
<g id="edge20" class="edge"><title>G_EYD&#45;&gt;FIJ</title>
<path fill="none" stroke="grey" d="M63.0621,-288.973C65.892,-285.774 68.9045,-282.369 71.8968,-278.986"/>
<polygon fill="grey" stroke="grey" points="74.7423,-281.052 78.7466,-271.243 69.4993,-276.414 74.7423,-281.052"/>
</g>
<!-- G_EVAAC&#45;&gt;ROM -->
<g id="edge22" class="edge"><title>G_EVAAC&#45;&gt;ROM</title>
<path fill="none" stroke="grey" d="M550,-396.973C550,-394.574 550,-392.059 550,-389.524"/>
<polygon fill="grey" stroke="grey" points="553.5,-389.243 550,-379.243 546.5,-389.243 553.5,-389.243"/>
</g>
<!-- G_EAH&#45;&gt;NAM -->
<g id="edge24" class="edge"><title>G_EAH&#45;&gt;NAM</title>
<path fill="none" stroke="grey" d="M330.327,-396.973C330.375,-394.485 330.426,-391.872 330.476,-389.242"/>
<polygon fill="grey" stroke="grey" points="333.975,-389.308 330.668,-379.243 326.977,-389.174 333.975,-389.308"/>
</g>
<!-- G_EMH&#45;&gt;GEO -->
<g id="edge26" class="edge"><title>G_EMH&#45;&gt;GEO</title>
<path fill="none" stroke="grey" d="M255,-288.973C255,-286.574 255,-284.059 255,-281.524"/>
<polygon fill="grey" stroke="grey" points="258.5,-281.243 255,-271.243 251.5,-281.243 258.5,-281.243"/>
</g>
<!-- G_EBBAC&#45;&gt;CAN -->
<g id="edge28" class="edge"><title>G_EBBAC&#45;&gt;CAN</title>
<path fill="none" stroke="grey" d="M463.885,-288.973C461.735,-285.952 459.454,-282.747 457.18,-279.55"/>
<polygon fill="grey" stroke="grey" points="459.918,-277.362 451.269,-271.243 454.215,-281.42 459.918,-277.362"/>
</g>
<!-- G_EYF&#45;&gt;SAM -->
<g id="edge30" class="edge"><title>G_EYF&#45;&gt;SAM</title>
<path fill="none" stroke="grey" d="M624,-180.973C624,-178.574 624,-176.059 624,-173.524"/>
<polygon fill="grey" stroke="grey" points="627.5,-173.243 624,-163.243 620.5,-173.243 627.5,-173.243"/>
</g>
<!-- G_EEE&#45;&gt;ENG -->
<g id="edge32" class="edge"><title>G_EEE&#45;&gt;ENG</title>
<path fill="none" stroke="grey" d="M178,-396.973C178,-394.574 178,-392.059 178,-389.524"/>
<polygon fill="grey" stroke="grey" points="181.5,-389.243 178,-379.243 174.5,-389.243 181.5,-389.243"/>
</g>
</g>
</svg>
