<?xml version="1.0" encoding="UTF-8" standalone="no"?>
<!DOCTYPE svg PUBLIC "-//W3C//DTD SVG 1.1//EN"
 "http://www.w3.org/Graphics/SVG/1.1/DTD/svg11.dtd">
<!-- Generated by graphviz version 2.38.0 (20140413.2041)
 -->
<!-- Title: g Pages: 1 -->
<svg width="524pt" height="927pt"
 viewBox="0.00 0.00 524.00 927.00" xmlns="http://www.w3.org/2000/svg" xmlns:xlink="http://www.w3.org/1999/xlink">
<g id="graph0" class="graph" transform="scale(1 1) rotate(0) translate(4 923)">
<title>g</title>
<polygon fill="white" stroke="none" points="-4,4 -4,-923 520,-923 520,4 -4,4"/>
<text text-anchor="middle" x="258" y="-7" font-family="Verdana" font-size="10.00">14A Water Polo</text>
<!-- MERP -->
<g id="node1" class="node"><title>MERP</title>
<polygon fill="white" stroke="pink" points="289,-919 227,-919 227,-883 289,-883 289,-919"/>
<text text-anchor="middle" x="258" y="-903.8" font-family="Verdana" font-size="9.00" fill="pink">Mermaids</text>
<text text-anchor="middle" x="258" y="-893.8" font-family="Verdana" font-size="9.00" fill="pink">Pink</text>
</g>
<!-- G_E4C -->
<g id="node13" class="node"><title>G_E4C</title>
<polygon fill="none" stroke="grey" points="376,-865 322,-865 322,-829 376,-829 376,-865"/>
<text text-anchor="middle" x="349" y="-849.6" font-family="Verdana" font-size="8.00" fill="grey">Round 1</text>
<text text-anchor="middle" x="349" y="-840.6" font-family="Verdana" font-size="8.00" fill="grey">11&#45;2</text>
</g>
<!-- MERP&#45;&gt;G_E4C -->
<g id="edge7" class="edge"><title>MERP&#45;&gt;G_E4C</title>
<path fill="none" stroke="grey" d="M287.797,-882.973C295.867,-878.362 304.688,-873.321 313.057,-868.539"/>
<polygon fill="grey" stroke="grey" points="314.959,-871.483 321.905,-863.483 311.486,-865.405 314.959,-871.483"/>
</g>
<!-- G_EFE -->
<g id="node16" class="node"><title>G_EFE</title>
<polygon fill="none" stroke="grey" points="156,-811 102,-811 102,-775 156,-775 156,-811"/>
<text text-anchor="middle" x="129" y="-795.6" font-family="Verdana" font-size="8.00" fill="grey">Round 2</text>
<text text-anchor="middle" x="129" y="-786.6" font-family="Verdana" font-size="8.00" fill="grey">15&#45;1</text>
</g>
<!-- MERP&#45;&gt;G_EFE -->
<g id="edge13" class="edge"><title>MERP&#45;&gt;G_EFE</title>
<path fill="none" stroke="grey" d="M226.887,-887.456C214.435,-881.636 200.377,-874.001 189,-865 172.601,-852.026 157.432,-833.997 146.448,-819.354"/>
<polygon fill="grey" stroke="grey" points="149.21,-817.201 140.488,-811.187 143.556,-821.328 149.21,-817.201"/>
</g>
<!-- G_ENH -->
<g id="node24" class="node"><title>G_ENH</title>
<polygon fill="none" stroke="grey" points="285,-865 231,-865 231,-829 285,-829 285,-865"/>
<text text-anchor="middle" x="258" y="-849.6" font-family="Verdana" font-size="8.00" fill="grey">Round 4</text>
<text text-anchor="middle" x="258" y="-840.6" font-family="Verdana" font-size="8.00" fill="grey">15&#45;1</text>
</g>
<!-- MERP&#45;&gt;G_ENH -->
<g id="edge29" class="edge"><title>MERP&#45;&gt;G_ENH</title>
<path fill="none" stroke="grey" d="M258,-882.973C258,-880.574 258,-878.059 258,-875.524"/>
<polygon fill="grey" stroke="grey" points="261.5,-875.243 258,-865.243 254.5,-875.243 261.5,-875.243"/>
</g>
<!-- G_EWAAC -->
<g id="node27" class="node"><title>G_EWAAC</title>
<polygon fill="none" stroke="grey" points="211,-757 157,-757 157,-721 211,-721 211,-757"/>
<text text-anchor="middle" x="184" y="-741.6" font-family="Verdana" font-size="8.00" fill="grey">Round 5</text>
<text text-anchor="middle" x="184" y="-732.6" font-family="Verdana" font-size="8.00" fill="grey">18&#45;0</text>
</g>
<!-- MERP&#45;&gt;G_EWAAC -->
<g id="edge35" class="edge"><title>MERP&#45;&gt;G_EWAAC</title>
<path fill="none" stroke="grey" d="M236.619,-882.665C231.244,-877.452 225.901,-871.402 222,-865 203.327,-834.358 193.221,-793.851 188.224,-767.374"/>
<polygon fill="grey" stroke="grey" points="191.629,-766.529 186.441,-757.291 184.736,-767.748 191.629,-766.529"/>
</g>
<!-- G_ECDAC -->
<g id="node33" class="node"><title>G_ECDAC</title>
<polygon fill="none" stroke="grey" points="512,-811 458,-811 458,-775 512,-775 512,-811"/>
<text text-anchor="middle" x="485" y="-795.6" font-family="Verdana" font-size="8.00" fill="grey">Round 6</text>
<text text-anchor="middle" x="485" y="-786.6" font-family="Verdana" font-size="8.00" fill="grey">23&#45;1</text>
</g>
<!-- MERP&#45;&gt;G_ECDAC -->
<g id="edge47" class="edge"><title>MERP&#45;&gt;G_ECDAC</title>
<path fill="none" stroke="grey" d="M289.086,-894.587C315.478,-889.261 353.905,-879.759 385,-865 411.306,-852.514 438.045,-833.105 457.247,-817.734"/>
<polygon fill="grey" stroke="grey" points="459.71,-820.242 465.25,-811.211 455.288,-814.816 459.71,-820.242"/>
</g>
<!-- AHS -->
<g id="node2" class="node"><title>AHS</title>
<polygon fill="#569add" stroke="white" points="140.5,-595 73.5,-595 73.5,-559 140.5,-559 140.5,-595"/>
<text text-anchor="middle" x="107" y="-574.8" font-family="Verdana" font-size="9.00" fill="white">All Hallows</text>
</g>
<!-- G_EZF -->
<g id="node20" class="node"><title>G_EZF</title>
<polygon fill="none" stroke="grey" points="188,-541 134,-541 134,-505 188,-505 188,-541"/>
<text text-anchor="middle" x="161" y="-525.6" font-family="Verdana" font-size="8.00" fill="grey">Round 3</text>
<text text-anchor="middle" x="161" y="-516.6" font-family="Verdana" font-size="8.00" fill="grey">6&#45;3</text>
</g>
<!-- AHS&#45;&gt;G_EZF -->
<g id="edge21" class="edge"><title>AHS&#45;&gt;G_EZF</title>
<path fill="none" stroke="grey" d="M124.682,-558.973C128.188,-555.597 131.934,-551.99 135.638,-548.423"/>
<polygon fill="grey" stroke="grey" points="138.318,-550.701 143.094,-541.243 133.463,-545.658 138.318,-550.701"/>
</g>
<!-- G_EVG -->
<g id="node22" class="node"><title>G_EVG</title>
<polygon fill="none" stroke="grey" points="54,-325 0,-325 0,-289 54,-289 54,-325"/>
<text text-anchor="middle" x="27" y="-309.6" font-family="Verdana" font-size="8.00" fill="grey">Round 4</text>
<text text-anchor="middle" x="27" y="-300.6" font-family="Verdana" font-size="8.00" fill="grey">5&#45;1</text>
</g>
<!-- AHS&#45;&gt;G_EVG -->
<g id="edge25" class="edge"><title>AHS&#45;&gt;G_EVG</title>
<path fill="none" stroke="grey" d="M76.9994,-558.893C49.4896,-540.725 13,-509.231 13,-470 13,-470 13,-470 13,-414 13,-387.004 17.5181,-356.472 21.4209,-335.133"/>
<polygon fill="grey" stroke="grey" points="24.8863,-335.645 23.3217,-325.166 18.0103,-334.334 24.8863,-335.645"/>
</g>
<!-- G_EKAAC -->
<g id="node26" class="node"><title>G_EKAAC</title>
<polygon fill="none" stroke="grey" points="167,-487 113,-487 113,-451 167,-451 167,-487"/>
<text text-anchor="middle" x="140" y="-471.6" font-family="Verdana" font-size="8.00" fill="grey">Round 5</text>
<text text-anchor="middle" x="140" y="-462.6" font-family="Verdana" font-size="8.00" fill="grey">6&#45;2</text>
</g>
<!-- AHS&#45;&gt;G_EKAAC -->
<g id="edge33" class="edge"><title>AHS&#45;&gt;G_EKAAC</title>
<path fill="none" stroke="grey" d="M110.555,-558.854C113.753,-544.337 118.881,-523.066 125,-505 125.935,-502.241 126.992,-499.395 128.102,-496.573"/>
<polygon fill="grey" stroke="grey" points="131.376,-497.816 131.977,-487.238 124.911,-495.132 131.376,-497.816"/>
</g>
<!-- G_E5BAC -->
<g id="node30" class="node"><title>G_E5BAC</title>
<polygon fill="none" stroke="grey" points="95,-487 41,-487 41,-451 95,-451 95,-487"/>
<text text-anchor="middle" x="68" y="-471.6" font-family="Verdana" font-size="8.00" fill="grey">Round 6</text>
<text text-anchor="middle" x="68" y="-462.6" font-family="Verdana" font-size="8.00" fill="grey">13&#45;1</text>
</g>
<!-- AHS&#45;&gt;G_E5BAC -->
<g id="edge41" class="edge"><title>AHS&#45;&gt;G_E5BAC</title>
<path fill="none" stroke="grey" d="M100.734,-558.969C94.5731,-542.224 85.0753,-516.41 77.8942,-496.892"/>
<polygon fill="grey" stroke="grey" points="81.1178,-495.517 74.38,-487.341 74.5483,-497.934 81.1178,-495.517"/>
</g>
<!-- BGGS -->
<g id="node3" class="node"><title>BGGS</title>
<polygon fill="#eeeeee" stroke="blue" points="409.5,-811 326.5,-811 326.5,-775 409.5,-775 409.5,-811"/>
<text text-anchor="middle" x="368" y="-795.8" font-family="Verdana" font-size="9.00" fill="blue">Brisbane</text>
<text text-anchor="middle" x="368" y="-785.8" font-family="Verdana" font-size="9.00" fill="blue">Girls Grammar</text>
</g>
<!-- G_EBF -->
<g id="node18" class="node"><title>G_EBF</title>
<polygon fill="none" stroke="grey" points="340,-757 286,-757 286,-721 340,-721 340,-757"/>
<text text-anchor="middle" x="313" y="-741.6" font-family="Verdana" font-size="8.00" fill="grey">Round 3</text>
<text text-anchor="middle" x="313" y="-732.6" font-family="Verdana" font-size="8.00" fill="grey">6&#45;3</text>
</g>
<!-- BGGS&#45;&gt;G_EBF -->
<g id="edge17" class="edge"><title>BGGS&#45;&gt;G_EBF</title>
<path fill="none" stroke="grey" d="M349.991,-774.973C346.325,-771.508 342.404,-767.8 338.534,-764.141"/>
<polygon fill="grey" stroke="grey" points="340.909,-761.57 331.238,-757.243 336.1,-766.656 340.909,-761.57"/>
</g>
<!-- G_ECBAC -->
<g id="node28" class="node"><title>G_ECBAC</title>
<polygon fill="none" stroke="grey" points="488,-595 434,-595 434,-559 488,-559 488,-595"/>
<text text-anchor="middle" x="461" y="-579.6" font-family="Verdana" font-size="8.00" fill="grey">Round 5</text>
<text text-anchor="middle" x="461" y="-570.6" font-family="Verdana" font-size="8.00" fill="grey">17&#45;0</text>
</g>
<!-- BGGS&#45;&gt;G_ECBAC -->
<g id="edge37" class="edge"><title>BGGS&#45;&gt;G_ECBAC</title>
<path fill="none" stroke="grey" d="M395.617,-774.715C417.666,-759.084 446.814,-733.827 459,-703 471.553,-671.245 469.432,-631.311 465.933,-605.244"/>
<polygon fill="grey" stroke="grey" points="469.388,-604.687 464.442,-595.317 462.466,-605.726 469.388,-604.687"/>
</g>
<!-- G_EKCAC -->
<g id="node31" class="node"><title>G_EKCAC</title>
<polygon fill="none" stroke="grey" points="450,-703 396,-703 396,-667 450,-667 450,-703"/>
<text text-anchor="middle" x="423" y="-687.6" font-family="Verdana" font-size="8.00" fill="grey">Round 6</text>
<text text-anchor="middle" x="423" y="-678.6" font-family="Verdana" font-size="8.00" fill="grey">14&#45;0</text>
</g>
<!-- BGGS&#45;&gt;G_EKCAC -->
<g id="edge43" class="edge"><title>BGGS&#45;&gt;G_EKCAC</title>
<path fill="none" stroke="grey" d="M376.837,-774.969C385.605,-758.071 399.166,-731.935 409.325,-712.356"/>
<polygon fill="grey" stroke="grey" points="412.504,-713.829 414.003,-703.341 406.29,-710.605 412.504,-713.829"/>
</g>
<!-- BARA -->
<g id="node4" class="node"><title>BARA</title>
<polygon fill="#eeeeee" stroke="blue" points="192,-379 138,-379 138,-343 192,-343 192,-379"/>
<text text-anchor="middle" x="165" y="-358.8" font-family="Verdana" font-size="9.00" fill="blue">Barras</text>
</g>
<!-- G_EFC -->
<g id="node11" class="node"><title>G_EFC</title>
<polygon fill="none" stroke="grey" points="233,-271 179,-271 179,-235 233,-235 233,-271"/>
<text text-anchor="middle" x="206" y="-255.6" font-family="Verdana" font-size="8.00" fill="grey">Round 1</text>
<text text-anchor="middle" x="206" y="-246.6" font-family="Verdana" font-size="8.00" fill="grey">7&#45;6</text>
</g>
<!-- BARA&#45;&gt;G_EFC -->
<g id="edge3" class="edge"><title>BARA&#45;&gt;G_EFC</title>
<path fill="none" stroke="grey" d="M171.587,-342.969C178.064,-326.224 188.049,-300.41 195.598,-280.892"/>
<polygon fill="grey" stroke="grey" points="198.95,-281.93 199.293,-271.341 192.421,-279.405 198.95,-281.93"/>
</g>
<!-- G_ENF -->
<g id="node19" class="node"><title>G_ENF</title>
<polygon fill="none" stroke="grey" points="188,-217 134,-217 134,-181 188,-181 188,-217"/>
<text text-anchor="middle" x="161" y="-201.6" font-family="Verdana" font-size="8.00" fill="grey">Round 3</text>
<text text-anchor="middle" x="161" y="-192.6" font-family="Verdana" font-size="8.00" fill="grey">7&#45;1</text>
</g>
<!-- BARA&#45;&gt;G_ENF -->
<g id="edge19" class="edge"><title>BARA&#45;&gt;G_ENF</title>
<path fill="none" stroke="grey" d="M164.572,-342.877C163.884,-315.354 162.525,-261.008 161.696,-227.849"/>
<polygon fill="grey" stroke="grey" points="165.186,-227.394 161.437,-217.485 158.188,-227.569 165.186,-227.394"/>
</g>
<!-- G_EOBAC -->
<g id="node29" class="node"><title>G_EOBAC</title>
<polygon fill="none" stroke="grey" points="264,-325 210,-325 210,-289 264,-289 264,-325"/>
<text text-anchor="middle" x="237" y="-309.6" font-family="Verdana" font-size="8.00" fill="grey">Round 5</text>
<text text-anchor="middle" x="237" y="-300.6" font-family="Verdana" font-size="8.00" fill="grey">7&#45;5</text>
</g>
<!-- BARA&#45;&gt;G_EOBAC -->
<g id="edge39" class="edge"><title>BARA&#45;&gt;G_EOBAC</title>
<path fill="none" stroke="grey" d="M188.575,-342.973C193.743,-339.241 199.3,-335.228 204.741,-331.298"/>
<polygon fill="grey" stroke="grey" points="207.067,-333.935 213.125,-325.243 202.969,-328.261 207.067,-333.935"/>
</g>
<!-- MERB -->
<g id="node5" class="node"><title>MERB</title>
<polygon fill="white" stroke="blue" points="249,-487 187,-487 187,-451 249,-451 249,-487"/>
<text text-anchor="middle" x="218" y="-471.8" font-family="Verdana" font-size="9.00" fill="blue">Mermaids</text>
<text text-anchor="middle" x="218" y="-461.8" font-family="Verdana" font-size="9.00" fill="blue">Blue</text>
</g>
<!-- G_EZB -->
<g id="node10" class="node"><title>G_EZB</title>
<polygon fill="none" stroke="grey" points="283,-379 229,-379 229,-343 283,-343 283,-379"/>
<text text-anchor="middle" x="256" y="-363.6" font-family="Verdana" font-size="8.00" fill="grey">Round 1</text>
<text text-anchor="middle" x="256" y="-354.6" font-family="Verdana" font-size="8.00" fill="grey">18&#45;7</text>
</g>
<!-- MERB&#45;&gt;G_EZB -->
<g id="edge1" class="edge"><title>MERB&#45;&gt;G_EZB</title>
<path fill="none" stroke="grey" d="M222.235,-450.809C226.018,-436.264 232.03,-414.978 239,-397 240.112,-394.132 241.366,-391.177 242.677,-388.257"/>
<polygon fill="grey" stroke="grey" points="245.85,-389.734 246.951,-379.196 239.519,-386.747 245.85,-389.734"/>
</g>
<!-- G_ERE -->
<g id="node17" class="node"><title>G_ERE</title>
<polygon fill="none" stroke="grey" points="192,-433 138,-433 138,-397 192,-397 192,-433"/>
<text text-anchor="middle" x="165" y="-417.6" font-family="Verdana" font-size="8.00" fill="grey">Round 2</text>
<text text-anchor="middle" x="165" y="-408.6" font-family="Verdana" font-size="8.00" fill="grey">4&#45;3</text>
</g>
<!-- MERB&#45;&gt;G_ERE -->
<g id="edge15" class="edge"><title>MERB&#45;&gt;G_ERE</title>
<path fill="none" stroke="grey" d="M200.646,-450.973C197.204,-447.597 193.528,-443.99 189.892,-440.423"/>
<polygon fill="grey" stroke="grey" points="192.164,-437.748 182.575,-433.243 187.262,-442.745 192.164,-437.748"/>
</g>
<!-- G_EBH -->
<g id="node23" class="node"><title>G_EBH</title>
<polygon fill="none" stroke="grey" points="302,-433 248,-433 248,-397 302,-397 302,-433"/>
<text text-anchor="middle" x="275" y="-417.6" font-family="Verdana" font-size="8.00" fill="grey">Round 4</text>
<text text-anchor="middle" x="275" y="-408.6" font-family="Verdana" font-size="8.00" fill="grey">4&#45;3</text>
</g>
<!-- MERB&#45;&gt;G_EBH -->
<g id="edge27" class="edge"><title>MERB&#45;&gt;G_EBH</title>
<path fill="none" stroke="grey" d="M236.664,-450.973C240.463,-447.508 244.527,-443.8 248.538,-440.141"/>
<polygon fill="grey" stroke="grey" points="251.07,-442.568 256.099,-433.243 246.352,-437.397 251.07,-442.568"/>
</g>
<!-- POLO -->
<g id="node6" class="node"><title>POLO</title>
<polygon fill="#eeeeee" stroke="blue" points="325.5,-271 258.5,-271 258.5,-235 325.5,-235 325.5,-271"/>
<text text-anchor="middle" x="292" y="-250.8" font-family="Verdana" font-size="9.00" fill="blue">Polo Bears</text>
</g>
<!-- G_EFG -->
<g id="node21" class="node"><title>G_EFG</title>
<polygon fill="none" stroke="grey" points="330,-163 276,-163 276,-127 330,-127 330,-163"/>
<text text-anchor="middle" x="303" y="-147.6" font-family="Verdana" font-size="8.00" fill="grey">Round 3</text>
<text text-anchor="middle" x="303" y="-138.6" font-family="Verdana" font-size="8.00" fill="grey">8&#45;6</text>
</g>
<!-- POLO&#45;&gt;G_EFG -->
<g id="edge23" class="edge"><title>POLO&#45;&gt;G_EFG</title>
<path fill="none" stroke="grey" d="M303.475,-234.902C306.54,-229.419 309.434,-223.165 311,-217 314.613,-202.77 313.175,-186.521 310.585,-173.162"/>
<polygon fill="grey" stroke="grey" points="313.944,-172.15 308.334,-163.162 307.115,-173.686 313.944,-172.15"/>
</g>
<!-- G_EZH -->
<g id="node25" class="node"><title>G_EZH</title>
<polygon fill="none" stroke="grey" points="302,-217 248,-217 248,-181 302,-181 302,-217"/>
<text text-anchor="middle" x="275" y="-201.6" font-family="Verdana" font-size="8.00" fill="grey">Round 4</text>
<text text-anchor="middle" x="275" y="-192.6" font-family="Verdana" font-size="8.00" fill="grey">7&#45;4</text>
</g>
<!-- POLO&#45;&gt;G_EZH -->
<g id="edge31" class="edge"><title>POLO&#45;&gt;G_EZH</title>
<path fill="none" stroke="grey" d="M286.434,-234.973C285.591,-232.396 284.705,-229.685 283.814,-226.96"/>
<polygon fill="grey" stroke="grey" points="287.071,-225.66 280.637,-217.243 280.418,-227.836 287.071,-225.66"/>
</g>
<!-- RITA -->
<g id="node7" class="node"><title>RITA</title>
<polygon fill="white" stroke="#502e08" points="302.5,-703 247.5,-703 247.5,-667 302.5,-667 302.5,-703"/>
<text text-anchor="middle" x="275" y="-682.8" font-family="Verdana" font-size="9.00" fill="#502e08">St Rita&#39;s</text>
</g>
<!-- G_ERC -->
<g id="node12" class="node"><title>G_ERC</title>
<polygon fill="none" stroke="grey" points="230,-649 176,-649 176,-613 230,-613 230,-649"/>
<text text-anchor="middle" x="203" y="-633.6" font-family="Verdana" font-size="8.00" fill="grey">Round 1</text>
<text text-anchor="middle" x="203" y="-624.6" font-family="Verdana" font-size="8.00" fill="grey">9&#45;5</text>
</g>
<!-- RITA&#45;&gt;G_ERC -->
<g id="edge5" class="edge"><title>RITA&#45;&gt;G_ERC</title>
<path fill="none" stroke="grey" d="M251.425,-666.973C246.257,-663.241 240.7,-659.228 235.259,-655.298"/>
<polygon fill="grey" stroke="grey" points="237.031,-652.261 226.875,-649.243 232.933,-657.935 237.031,-652.261"/>
</g>
<!-- G_END -->
<g id="node14" class="node"><title>G_END</title>
<polygon fill="none" stroke="grey" points="340,-541 286,-541 286,-505 340,-505 340,-541"/>
<text text-anchor="middle" x="313" y="-525.6" font-family="Verdana" font-size="8.00" fill="grey">Round 2</text>
<text text-anchor="middle" x="313" y="-516.6" font-family="Verdana" font-size="8.00" fill="grey">15&#45;2</text>
</g>
<!-- RITA&#45;&gt;G_END -->
<g id="edge9" class="edge"><title>RITA&#45;&gt;G_END</title>
<path fill="none" stroke="grey" d="M297.984,-666.935C303.222,-661.801 308.096,-655.722 311,-649 324.616,-617.478 322.167,-577.179 318.309,-550.988"/>
<polygon fill="grey" stroke="grey" points="321.747,-550.327 316.672,-541.026 314.839,-551.462 321.747,-550.327"/>
</g>
<!-- G_EWCAC -->
<g id="node32" class="node"><title>G_EWCAC</title>
<polygon fill="none" stroke="grey" points="302,-649 248,-649 248,-613 302,-613 302,-649"/>
<text text-anchor="middle" x="275" y="-633.6" font-family="Verdana" font-size="8.00" fill="grey">Round 6</text>
<text text-anchor="middle" x="275" y="-624.6" font-family="Verdana" font-size="8.00" fill="grey">9&#45;3</text>
</g>
<!-- RITA&#45;&gt;G_EWCAC -->
<g id="edge45" class="edge"><title>RITA&#45;&gt;G_EWCAC</title>
<path fill="none" stroke="grey" d="M275,-666.973C275,-664.574 275,-662.059 275,-659.524"/>
<polygon fill="grey" stroke="grey" points="278.5,-659.243 275,-649.243 271.5,-659.243 278.5,-659.243"/>
</g>
<!-- RCWP -->
<g id="node8" class="node"><title>RCWP</title>
<polygon fill="#eeeeee" stroke="blue" points="191.5,-163 130.5,-163 130.5,-127 191.5,-127 191.5,-163"/>
<text text-anchor="middle" x="161" y="-142.8" font-family="Verdana" font-size="9.00" fill="blue">River City</text>
</g>
<!-- G_EZD -->
<g id="node15" class="node"><title>G_EZD</title>
<polygon fill="none" stroke="grey" points="190,-109 136,-109 136,-73 190,-73 190,-109"/>
<text text-anchor="middle" x="163" y="-93.6" font-family="Verdana" font-size="8.00" fill="grey">Round 2</text>
<text text-anchor="middle" x="163" y="-84.6" font-family="Verdana" font-size="8.00" fill="grey">6&#45;3</text>
</g>
<!-- RCWP&#45;&gt;G_EZD -->
<g id="edge11" class="edge"><title>RCWP&#45;&gt;G_EZD</title>
<path fill="none" stroke="grey" d="M161.655,-126.973C161.751,-124.485 161.851,-121.872 161.952,-119.242"/>
<polygon fill="grey" stroke="grey" points="165.45,-119.37 162.337,-109.243 158.455,-119.101 165.45,-119.37"/>
</g>
<!-- SHLM -->
<g id="node9" class="node"><title>SHLM</title>
<polygon fill="#eeeeee" stroke="blue" points="287,-55 213,-55 213,-19 287,-19 287,-55"/>
<text text-anchor="middle" x="250" y="-34.8" font-family="Verdana" font-size="9.00" fill="blue">Stuartholme</text>
</g>
<!-- G_EZB&#45;&gt;POLO -->
<g id="edge2" class="edge"><title>G_EZB&#45;&gt;POLO</title>
<path fill="none" stroke="grey" d="M265.142,-342.839C267.901,-337.249 270.782,-330.95 273,-325 278.275,-310.848 282.734,-294.606 286.004,-281.23"/>
<polygon fill="grey" stroke="grey" points="289.477,-281.749 288.364,-271.213 282.664,-280.144 289.477,-281.749"/>
</g>
<!-- G_EFC&#45;&gt;SHLM -->
<g id="edge4" class="edge"><title>G_EFC&#45;&gt;SHLM</title>
<path fill="none" stroke="grey" d="M209.526,-234.849C217.153,-197.753 235.235,-109.81 244.427,-65.1027"/>
<polygon fill="grey" stroke="grey" points="247.871,-65.7325 246.457,-55.2325 241.015,-64.3226 247.871,-65.7325"/>
</g>
<!-- G_ERC&#45;&gt;AHS -->
<g id="edge6" class="edge"><title>G_ERC&#45;&gt;AHS</title>
<path fill="none" stroke="grey" d="M175.747,-615.238C166.925,-610.46 156.946,-605.054 147.381,-599.873"/>
<polygon fill="grey" stroke="grey" points="148.848,-596.687 138.388,-595.002 145.514,-602.842 148.848,-596.687"/>
</g>
<!-- G_E4C&#45;&gt;BGGS -->
<g id="edge8" class="edge"><title>G_E4C&#45;&gt;BGGS</title>
<path fill="none" stroke="grey" d="M355.221,-828.973C356.195,-826.307 357.222,-823.498 358.252,-820.678"/>
<polygon fill="grey" stroke="grey" points="361.555,-821.837 361.7,-811.243 354.98,-819.434 361.555,-821.837"/>
</g>
<!-- G_END&#45;&gt;POLO -->
<g id="edge10" class="edge"><title>G_END&#45;&gt;POLO</title>
<path fill="none" stroke="grey" d="M317.467,-504.877C322.503,-484.032 330,-447.685 330,-416 330,-416 330,-416 330,-360 330,-331.519 317.693,-301.125 307.087,-280.219"/>
<polygon fill="grey" stroke="grey" points="310.152,-278.527 302.384,-271.322 303.963,-281.799 310.152,-278.527"/>
</g>
<!-- G_EZD&#45;&gt;SHLM -->
<g id="edge12" class="edge"><title>G_EZD&#45;&gt;SHLM</title>
<path fill="none" stroke="grey" d="M190.05,-73.8319C197.221,-69.5462 205.091,-64.8424 212.702,-60.2933"/>
<polygon fill="grey" stroke="grey" points="214.672,-63.193 221.46,-55.0582 211.081,-57.1845 214.672,-63.193"/>
</g>
<!-- G_EFE&#45;&gt;AHS -->
<g id="edge14" class="edge"><title>G_EFE&#45;&gt;AHS</title>
<path fill="none" stroke="grey" d="M127.237,-774.849C123.431,-737.832 114.42,-650.181 109.815,-605.386"/>
<polygon fill="grey" stroke="grey" points="113.276,-604.822 108.772,-595.232 106.313,-605.538 113.276,-604.822"/>
</g>
<!-- G_ERE&#45;&gt;BARA -->
<g id="edge16" class="edge"><title>G_ERE&#45;&gt;BARA</title>
<path fill="none" stroke="grey" d="M165,-396.973C165,-394.574 165,-392.059 165,-389.524"/>
<polygon fill="grey" stroke="grey" points="168.5,-389.243 165,-379.243 161.5,-389.243 168.5,-389.243"/>
</g>
<!-- G_EBF&#45;&gt;RITA -->
<g id="edge18" class="edge"><title>G_EBF&#45;&gt;RITA</title>
<path fill="none" stroke="grey" d="M300.557,-720.973C298.35,-717.952 296.007,-714.747 293.671,-711.55"/>
<polygon fill="grey" stroke="grey" points="296.327,-709.252 287.601,-703.243 290.675,-713.382 296.327,-709.252"/>
</g>
<!-- G_ENF&#45;&gt;RCWP -->
<g id="edge20" class="edge"><title>G_ENF&#45;&gt;RCWP</title>
<path fill="none" stroke="grey" d="M161,-180.973C161,-178.574 161,-176.059 161,-173.524"/>
<polygon fill="grey" stroke="grey" points="164.5,-173.243 161,-163.243 157.5,-173.243 164.5,-173.243"/>
</g>
<!-- G_EZF&#45;&gt;MERB -->
<g id="edge22" class="edge"><title>G_EZF&#45;&gt;MERB</title>
<path fill="none" stroke="grey" d="M179.664,-504.973C183.463,-501.508 187.527,-497.8 191.538,-494.141"/>
<polygon fill="grey" stroke="grey" points="194.07,-496.568 199.099,-487.243 189.352,-491.397 194.07,-496.568"/>
</g>
<!-- G_EFG&#45;&gt;SHLM -->
<g id="edge24" class="edge"><title>G_EFG&#45;&gt;SHLM</title>
<path fill="none" stroke="grey" d="M294.485,-126.969C286.035,-110.071 272.968,-83.9353 263.178,-64.3563"/>
<polygon fill="grey" stroke="grey" points="266.273,-62.7196 258.67,-55.3406 260.012,-65.8502 266.273,-62.7196"/>
</g>
<!-- G_EVG&#45;&gt;SHLM -->
<g id="edge26" class="edge"><title>G_EVG&#45;&gt;SHLM</title>
<path fill="none" stroke="grey" d="M30.6783,-288.834C34.8263,-267.946 41,-231.556 41,-200 41,-200 41,-200 41,-144 41,-72.0803 140.655,-48.9419 202.338,-41.5084"/>
<polygon fill="grey" stroke="grey" points="203.08,-44.9477 212.635,-40.3696 202.311,-37.9902 203.08,-44.9477"/>
</g>
<!-- G_EBH&#45;&gt;BGGS -->
<g id="edge28" class="edge"><title>G_EBH&#45;&gt;BGGS</title>
<path fill="none" stroke="grey" d="M302.4,-431.674C329.833,-449.64 368,-481.85 368,-522 368,-686 368,-686 368,-686 368,-712.763 368,-743.327 368,-764.737"/>
<polygon fill="grey" stroke="grey" points="364.5,-764.742 368,-774.742 371.5,-764.742 364.5,-764.742"/>
</g>
<!-- G_ENH&#45;&gt;RITA -->
<g id="edge30" class="edge"><title>G_ENH&#45;&gt;RITA</title>
<path fill="none" stroke="grey" d="M259.819,-828.877C262.744,-801.354 268.518,-747.008 272.041,-713.849"/>
<polygon fill="grey" stroke="grey" points="275.566,-713.799 273.142,-703.485 268.605,-713.059 275.566,-713.799"/>
</g>
<!-- G_EZH&#45;&gt;RCWP -->
<g id="edge32" class="edge"><title>G_EZH&#45;&gt;RCWP</title>
<path fill="none" stroke="grey" d="M247.984,-185.677C234.025,-179.31 216.713,-171.413 201.217,-164.345"/>
<polygon fill="grey" stroke="grey" points="202.401,-161.038 191.85,-160.072 199.496,-167.406 202.401,-161.038"/>
</g>
<!-- G_EKAAC&#45;&gt;RCWP -->
<g id="edge34" class="edge"><title>G_EKAAC&#45;&gt;RCWP</title>
<path fill="none" stroke="grey" d="M130.889,-450.911C120.817,-430.395 106,-394.661 106,-362 106,-362 106,-362 106,-252 106,-219.334 108.473,-209.176 125,-181 127.133,-177.363 129.746,-173.85 132.581,-170.545"/>
<polygon fill="grey" stroke="grey" points="135.151,-172.921 139.476,-163.25 130.064,-168.113 135.151,-172.921"/>
</g>
<!-- G_EWAAC&#45;&gt;MERB -->
<g id="edge36" class="edge"><title>G_EWAAC&#45;&gt;MERB</title>
<path fill="none" stroke="grey" d="M179.7,-720.744C175.495,-702.915 169.386,-674.214 167,-649 165.492,-633.071 163.862,-628.689 167,-613 173.799,-579.007 185.4,-573.668 197,-541 202.091,-526.663 206.963,-510.406 210.731,-497.069"/>
<polygon fill="grey" stroke="grey" points="214.198,-497.664 213.499,-487.092 207.453,-495.793 214.198,-497.664"/>
</g>
<!-- G_ECBAC&#45;&gt;SHLM -->
<g id="edge38" class="edge"><title>G_ECBAC&#45;&gt;SHLM</title>
<path fill="none" stroke="grey" d="M458.635,-558.78C455.969,-537.839 452,-501.397 452,-470 452,-470 452,-470 452,-144 452,-74.3639 356.71,-50.3802 297.026,-42.1878"/>
<polygon fill="grey" stroke="grey" points="297.412,-38.7088 287.05,-40.9187 296.528,-45.6528 297.412,-38.7088"/>
</g>
<!-- G_EOBAC&#45;&gt;POLO -->
<g id="edge40" class="edge"><title>G_EOBAC&#45;&gt;POLO</title>
<path fill="none" stroke="grey" d="M255.009,-288.973C258.675,-285.508 262.596,-281.8 266.466,-278.141"/>
<polygon fill="grey" stroke="grey" points="268.9,-280.656 273.762,-271.243 264.091,-275.57 268.9,-280.656"/>
</g>
<!-- G_E5BAC&#45;&gt;BARA -->
<g id="edge42" class="edge"><title>G_E5BAC&#45;&gt;BARA</title>
<path fill="none" stroke="grey" d="M81.8842,-450.988C93.9879,-436.367 112.19,-414.877 129,-397 132.333,-393.456 135.923,-389.793 139.501,-386.232"/>
<polygon fill="grey" stroke="grey" points="142.048,-388.637 146.74,-379.137 137.148,-383.638 142.048,-388.637"/>
</g>
<!-- G_EKCAC&#45;&gt;RCWP -->
<g id="edge44" class="edge"><title>G_EKCAC&#45;&gt;RCWP</title>
<path fill="none" stroke="grey" d="M418.533,-666.877C413.497,-646.032 406,-609.685 406,-578 406,-578 406,-578 406,-252 406,-199.289 358.791,-203.238 311,-181 275.93,-164.681 232.602,-155.63 201.545,-150.843"/>
<polygon fill="grey" stroke="grey" points="201.913,-147.359 191.512,-149.378 200.902,-154.286 201.913,-147.359"/>
</g>
<!-- G_EWCAC&#45;&gt;MERB -->
<g id="edge46" class="edge"><title>G_EWCAC&#45;&gt;MERB</title>
<path fill="none" stroke="grey" d="M268.9,-612.877C259.01,-585.115 239.397,-530.061 227.615,-496.988"/>
<polygon fill="grey" stroke="grey" points="230.882,-495.73 224.229,-487.485 224.288,-498.079 230.882,-495.73"/>
</g>
<!-- G_ECDAC&#45;&gt;SHLM -->
<g id="edge48" class="edge"><title>G_ECDAC&#45;&gt;SHLM</title>
<path fill="none" stroke="grey" d="M493.307,-774.821C502.49,-754.22 516,-718.403 516,-686 516,-686 516,-686 516,-144 516,-96.7926 479.33,-93.8972 437,-73 392.821,-51.1901 336.635,-42.9136 297.435,-39.8039"/>
<polygon fill="grey" stroke="grey" points="297.577,-36.3053 287.354,-39.0881 297.081,-43.2877 297.577,-36.3053"/>
</g>
</g>
</svg>
